<svg width="16" height="12" viewBox="0 0 16 12" fill="none" xmlns="http://www.w3.org/2000/svg">
<path d="M9 2.37262C8.72093 0.542462 6.73643 0.542461 6.39535 2.37262L5 9" stroke="#40C4A4" stroke-width="0.5"/>
<path d="M9 3L10 9" stroke="#40C4A4" stroke-width="0.5"/>
<path d="M5 3H2.63495C1.71484 3 1.28305 4.13774 1.97148 4.7482L4.51087 7" stroke="#40C4A4" stroke-width="0.5"/>
<path d="M10 3H12.9641C13.9287 3 14.3342 4.23097 13.5584 4.80424L10.587 7" stroke="#40C4A4" stroke-width="0.5"/>
<path d="M4.8999 9.5V9.5C4.72525 10.024 5.29107 10.4859 5.76947 10.2099L7 9.5" stroke="#40C4A4" stroke-width="0.5"/>
<path d="M10.0034 9.5V9.5C10.0958 10.1315 9.38478 10.5647 8.86597 10.1929L6.50352 8.5" stroke="#40C4A4" stroke-width="0.5"/>
</svg>
