<svg width="319" height="214" viewBox="0 0 319 214" fill="none" xmlns="http://www.w3.org/2000/svg">
<path d="M182.038 34.7937C176.666 -4.59791 138.468 -4.59792 131.903 34.7937L105.045 177.439" stroke="black" stroke-width="10"/>
<path d="M183.828 46.7306L210.686 176.843" stroke="black" stroke-width="10"/>
<path d="M109.819 53.8927H44.856C30.4554 53.8927 24.3292 72.2129 35.833 80.8754L99.076 128.498" stroke="black" stroke-width="10"/>
<path d="M208.895 53.8927H273.859C288.259 53.8927 294.385 72.2129 282.882 80.8754L219.639 128.498" stroke="black" stroke-width="10"/>
<path d="M104.448 189.973V189.973C102.684 197.616 111.569 203.181 117.676 198.259L139.065 181.02" stroke="black" stroke-width="10"/>
<path d="M212.476 187.586V187.586C214.336 195.643 205.204 201.691 198.511 196.836L133.096 149.388" stroke="black" stroke-width="10"/>
</svg>
