<svg width="204" height="66" viewBox="0 0 204 66" fill="none" xmlns="http://www.w3.org/2000/svg">
<path d="M57.4076 11.0985C55.728 -1.03283 43.7843 -1.03283 41.7314 11.0985L33.3335 55.0286" stroke="#40C4A4" stroke-width="4"/>
<path d="M57.4072 14.8L66.6665 55.0286" stroke="#40C4A4" stroke-width="4"/>
<path d="M35.1852 16.6286H18.0218C12.2535 16.6286 9.80813 23.9736 14.4253 27.4312L31.7432 40.4" stroke="#40C4A4" stroke-width="4"/>
<path d="M64.8148 16.6286H81.9782C87.7465 16.6286 90.1919 23.9736 85.5747 27.4312L68.2568 40.4" stroke="#40C4A4" stroke-width="4"/>
<path d="M33.2227 59.3968V59.3968C32.6307 61.6419 35.1646 63.4022 37.062 62.064L44.4444 56.8571" stroke="#40C4A4" stroke-width="4"/>
<path d="M66.8754 58.3839V58.3839C67.4339 60.9728 64.4552 62.8475 62.3627 61.224L42.5926 45.8857" stroke="#40C4A4" stroke-width="4"/>
<path d="M111.938 39.8994C111.417 39.8994 111.043 39.6841 110.816 39.2534C110.589 38.8227 110.567 38.4034 110.748 37.9954L120.744 14.2634C120.993 13.6514 121.424 13.3454 122.036 13.3454C122.625 13.3454 123.045 13.6514 123.294 14.2634L133.324 38.0294C133.528 38.4601 133.494 38.8794 133.222 39.2874C132.973 39.6954 132.61 39.8994 132.134 39.8994C131.862 39.8994 131.613 39.8314 131.386 39.6954C131.182 39.5594 131.012 39.3554 130.876 39.0834L121.526 16.4054H122.58L113.162 39.0834C113.049 39.3554 112.879 39.5594 112.652 39.6954C112.448 39.8314 112.21 39.8994 111.938 39.8994ZM114.182 33.5754L115.202 31.2974H129.006L130.026 33.5754H114.182ZM143.46 40.0694C142.123 40.0694 140.797 39.8427 139.482 39.3894C138.168 38.9361 137.102 38.2561 136.286 37.3494C136.037 37.0774 135.935 36.7714 135.98 36.4314C136.026 36.0914 136.196 35.7967 136.49 35.5474C136.808 35.3207 137.136 35.2301 137.476 35.2754C137.816 35.3207 138.1 35.4681 138.326 35.7174C138.87 36.3521 139.584 36.8394 140.468 37.1794C141.375 37.5194 142.372 37.6894 143.46 37.6894C145.138 37.6894 146.35 37.4061 147.098 36.8394C147.846 36.2501 148.232 35.5474 148.254 34.7314C148.254 33.9154 147.869 33.2467 147.098 32.7254C146.328 32.1814 145.058 31.7621 143.29 31.4674C141.001 31.1047 139.324 30.4701 138.258 29.5634C137.193 28.6567 136.66 27.5801 136.66 26.3334C136.66 25.1774 136.966 24.2141 137.578 23.4434C138.19 22.6727 139.006 22.0947 140.026 21.7094C141.046 21.3241 142.168 21.1314 143.392 21.1314C144.911 21.1314 146.214 21.3921 147.302 21.9134C148.413 22.4347 149.308 23.1374 149.988 24.0214C150.215 24.3161 150.306 24.6221 150.26 24.9394C150.215 25.2567 150.034 25.5174 149.716 25.7214C149.444 25.8801 149.127 25.9367 148.764 25.8914C148.424 25.8234 148.13 25.6534 147.88 25.3814C147.314 24.7241 146.656 24.2481 145.908 23.9534C145.16 23.6361 144.299 23.4774 143.324 23.4774C142.078 23.4774 141.08 23.7381 140.332 24.2594C139.584 24.7581 139.21 25.3927 139.21 26.1634C139.21 26.6847 139.346 27.1381 139.618 27.5234C139.913 27.9087 140.4 28.2487 141.08 28.5434C141.783 28.8381 142.758 29.0874 144.004 29.2914C145.704 29.5634 147.042 29.9714 148.016 30.5154C149.014 31.0367 149.716 31.6601 150.124 32.3854C150.555 33.0881 150.77 33.8587 150.77 34.6974C150.77 35.7627 150.453 36.7034 149.818 37.5194C149.206 38.3127 148.345 38.9361 147.234 39.3894C146.146 39.8427 144.888 40.0694 143.46 40.0694ZM162.57 39.8994C161.369 39.8994 160.292 39.6161 159.34 39.0494C158.411 38.4827 157.674 37.7121 157.13 36.7374C156.586 35.7401 156.314 34.6067 156.314 33.3374V16.7114C156.314 16.3261 156.428 16.0087 156.654 15.7594C156.904 15.5101 157.221 15.3854 157.606 15.3854C157.992 15.3854 158.309 15.5101 158.558 15.7594C158.808 16.0087 158.932 16.3261 158.932 16.7114V33.3374C158.932 34.4934 159.272 35.4454 159.952 36.1934C160.632 36.9187 161.505 37.2814 162.57 37.2814H163.488C163.851 37.2814 164.146 37.4061 164.372 37.6554C164.599 37.9047 164.712 38.2221 164.712 38.6074C164.712 38.9927 164.576 39.3101 164.304 39.5594C164.032 39.7861 163.692 39.8994 163.284 39.8994H162.57ZM154.104 24.2594C153.764 24.2594 153.481 24.1574 153.254 23.9534C153.028 23.7267 152.914 23.4547 152.914 23.1374C152.914 22.7974 153.028 22.5254 153.254 22.3214C153.481 22.0947 153.764 21.9814 154.104 21.9814H162.774C163.114 21.9814 163.398 22.0947 163.624 22.3214C163.851 22.5254 163.964 22.7974 163.964 23.1374C163.964 23.4547 163.851 23.7267 163.624 23.9534C163.398 24.1574 163.114 24.2594 162.774 24.2594H154.104ZM170.062 28.4414C170.13 27.0361 170.493 25.7781 171.15 24.6674C171.83 23.5567 172.703 22.6841 173.768 22.0494C174.856 21.4147 176.057 21.0974 177.372 21.0974C178.415 21.0974 179.219 21.2447 179.786 21.5394C180.353 21.8341 180.568 22.2647 180.432 22.8314C180.341 23.1714 180.183 23.3981 179.956 23.5114C179.752 23.6247 179.491 23.6701 179.174 23.6474C178.879 23.6247 178.539 23.6021 178.154 23.5794C176.885 23.4661 175.751 23.6021 174.754 23.9874C173.779 24.3501 172.997 24.9167 172.408 25.6874C171.841 26.4581 171.558 27.3761 171.558 28.4414H170.062ZM170.266 39.8994C169.858 39.8994 169.541 39.7861 169.314 39.5594C169.087 39.3327 168.974 39.0154 168.974 38.6074V22.5934C168.974 22.1854 169.087 21.8681 169.314 21.6414C169.541 21.4147 169.858 21.3014 170.266 21.3014C170.674 21.3014 170.991 21.4147 171.218 21.6414C171.445 21.8681 171.558 22.1854 171.558 22.5934V38.6074C171.558 39.0154 171.445 39.3327 171.218 39.5594C170.991 39.7861 170.674 39.8994 170.266 39.8994ZM191.379 40.0694C189.634 40.0694 188.07 39.6614 186.687 38.8454C185.304 38.0067 184.205 36.8734 183.389 35.4454C182.596 34.0174 182.199 32.4081 182.199 30.6174C182.199 28.8041 182.607 27.1834 183.423 25.7554C184.262 24.3274 185.395 23.2054 186.823 22.3894C188.251 21.5507 189.86 21.1314 191.651 21.1314C193.442 21.1314 195.04 21.5507 196.445 22.3894C197.873 23.2054 198.995 24.3274 199.811 25.7554C200.65 27.1834 201.08 28.8041 201.103 30.6174L200.049 31.4334C200.049 33.0654 199.664 34.5387 198.893 35.8534C198.145 37.1454 197.114 38.1767 195.799 38.9474C194.507 39.6954 193.034 40.0694 191.379 40.0694ZM191.651 37.6894C192.966 37.6894 194.133 37.3834 195.153 36.7714C196.196 36.1594 197.012 35.3207 197.601 34.2554C198.213 33.1674 198.519 31.9547 198.519 30.6174C198.519 29.2574 198.213 28.0447 197.601 26.9794C197.012 25.9141 196.196 25.0754 195.153 24.4634C194.133 23.8287 192.966 23.5114 191.651 23.5114C190.359 23.5114 189.192 23.8287 188.149 24.4634C187.106 25.0754 186.279 25.9141 185.667 26.9794C185.055 28.0447 184.749 29.2574 184.749 30.6174C184.749 31.9547 185.055 33.1674 185.667 34.2554C186.279 35.3207 187.106 36.1594 188.149 36.7714C189.192 37.3834 190.359 37.6894 191.651 37.6894ZM199.777 39.8994C199.392 39.8994 199.074 39.7861 198.825 39.5594C198.576 39.3101 198.451 38.9927 198.451 38.6074V32.7934L199.097 30.1074L201.103 30.6174V38.6074C201.103 38.9927 200.978 39.3101 200.729 39.5594C200.48 39.7861 200.162 39.8994 199.777 39.8994Z" fill="#2F2B2B"/>
<path d="M113.17 57.4717C112.65 57.4717 112.183 57.3584 111.77 57.1317C111.363 56.8984 111.043 56.5817 110.81 56.1817C110.577 55.7751 110.46 55.3117 110.46 54.7917C110.46 54.2651 110.577 53.8017 110.81 53.4017C111.043 53.0017 111.363 52.6884 111.77 52.4617C112.183 52.2351 112.65 52.1217 113.17 52.1217C113.617 52.1217 114.02 52.2084 114.38 52.3817C114.74 52.5551 115.023 52.8151 115.23 53.1617L114.7 53.5217C114.52 53.2551 114.297 53.0584 114.03 52.9317C113.763 52.8051 113.473 52.7417 113.16 52.7417C112.787 52.7417 112.45 52.8284 112.15 53.0017C111.85 53.1684 111.613 53.4051 111.44 53.7117C111.267 54.0184 111.18 54.3784 111.18 54.7917C111.18 55.2051 111.267 55.5651 111.44 55.8717C111.613 56.1784 111.85 56.4184 112.15 56.5917C112.45 56.7584 112.787 56.8417 113.16 56.8417C113.473 56.8417 113.763 56.7784 114.03 56.6517C114.297 56.5251 114.52 56.3317 114.7 56.0717L115.23 56.4317C115.023 56.7717 114.74 57.0317 114.38 57.2117C114.02 57.3851 113.617 57.4717 113.17 57.4717ZM118.777 57.4717C118.27 57.4717 117.814 57.3584 117.407 57.1317C117.007 56.8984 116.69 56.5817 116.457 56.1817C116.224 55.7751 116.107 55.3117 116.107 54.7917C116.107 54.2651 116.224 53.8017 116.457 53.4017C116.69 53.0017 117.007 52.6884 117.407 52.4617C117.807 52.2351 118.264 52.1217 118.777 52.1217C119.297 52.1217 119.757 52.2351 120.157 52.4617C120.564 52.6884 120.88 53.0017 121.107 53.4017C121.34 53.8017 121.457 54.2651 121.457 54.7917C121.457 55.3117 121.34 55.7751 121.107 56.1817C120.88 56.5817 120.564 56.8984 120.157 57.1317C119.75 57.3584 119.29 57.4717 118.777 57.4717ZM118.777 56.8417C119.157 56.8417 119.494 56.7584 119.787 56.5917C120.08 56.4184 120.31 56.1784 120.477 55.8717C120.65 55.5584 120.737 55.1984 120.737 54.7917C120.737 54.3784 120.65 54.0184 120.477 53.7117C120.31 53.4051 120.08 53.1684 119.787 53.0017C119.494 52.8284 119.16 52.7417 118.787 52.7417C118.414 52.7417 118.08 52.8284 117.787 53.0017C117.494 53.1684 117.26 53.4051 117.087 53.7117C116.914 54.0184 116.827 54.3784 116.827 54.7917C116.827 55.1984 116.914 55.5584 117.087 55.8717C117.26 56.1784 117.494 56.4184 117.787 56.5917C118.08 56.7584 118.41 56.8417 118.777 56.8417ZM129.566 52.1217C129.993 52.1217 130.363 52.2051 130.676 52.3717C130.996 52.5317 131.243 52.7784 131.416 53.1117C131.596 53.4451 131.686 53.8651 131.686 54.3717V57.4217H130.976V54.4417C130.976 53.8884 130.843 53.4717 130.576 53.1917C130.316 52.9051 129.946 52.7617 129.466 52.7617C129.106 52.7617 128.793 52.8384 128.526 52.9917C128.266 53.1384 128.063 53.3551 127.916 53.6417C127.776 53.9217 127.706 54.2617 127.706 54.6617V57.4217H126.996V54.4417C126.996 53.8884 126.863 53.4717 126.596 53.1917C126.33 52.9051 125.956 52.7617 125.476 52.7617C125.123 52.7617 124.813 52.8384 124.546 52.9917C124.28 53.1384 124.073 53.3551 123.926 53.6417C123.786 53.9217 123.716 54.2617 123.716 54.6617V57.4217H123.006V52.1717H123.686V53.5917L123.576 53.3417C123.736 52.9617 123.993 52.6651 124.346 52.4517C124.706 52.2317 125.13 52.1217 125.616 52.1217C126.13 52.1217 126.566 52.2517 126.926 52.5117C127.286 52.7651 127.52 53.1484 127.626 53.6617L127.346 53.5517C127.5 53.1251 127.77 52.7817 128.156 52.5217C128.55 52.2551 129.02 52.1217 129.566 52.1217ZM136.422 57.4717C135.969 57.4717 135.559 57.3684 135.192 57.1617C134.825 56.9484 134.532 56.6451 134.312 56.2517C134.099 55.8517 133.992 55.3651 133.992 54.7917C133.992 54.2184 134.099 53.7351 134.312 53.3417C134.525 52.9417 134.815 52.6384 135.182 52.4317C135.549 52.2251 135.962 52.1217 136.422 52.1217C136.922 52.1217 137.369 52.2351 137.762 52.4617C138.162 52.6817 138.475 52.9951 138.702 53.4017C138.929 53.8017 139.042 54.2651 139.042 54.7917C139.042 55.3251 138.929 55.7917 138.702 56.1917C138.475 56.5917 138.162 56.9051 137.762 57.1317C137.369 57.3584 136.922 57.4717 136.422 57.4717ZM133.712 59.3617V52.1717H134.392V53.7517L134.322 54.8017L134.422 55.8617V59.3617H133.712ZM136.372 56.8417C136.745 56.8417 137.079 56.7584 137.372 56.5917C137.665 56.4184 137.899 56.1784 138.072 55.8717C138.245 55.5584 138.332 55.1984 138.332 54.7917C138.332 54.3851 138.245 54.0284 138.072 53.7217C137.899 53.4151 137.665 53.1751 137.372 53.0017C137.079 52.8284 136.745 52.7417 136.372 52.7417C135.999 52.7417 135.662 52.8284 135.362 53.0017C135.069 53.1751 134.835 53.4151 134.662 53.7217C134.495 54.0284 134.412 54.3851 134.412 54.7917C134.412 55.1984 134.495 55.5584 134.662 55.8717C134.835 56.1784 135.069 56.4184 135.362 56.5917C135.662 56.7584 135.999 56.8417 136.372 56.8417ZM140.589 57.4217V50.0017H141.299V57.4217H140.589ZM145.605 57.4717C145.058 57.4717 144.578 57.3584 144.165 57.1317C143.751 56.8984 143.428 56.5817 143.195 56.1817C142.961 55.7751 142.845 55.3117 142.845 54.7917C142.845 54.2717 142.955 53.8117 143.175 53.4117C143.401 53.0117 143.708 52.6984 144.095 52.4717C144.488 52.2384 144.928 52.1217 145.415 52.1217C145.908 52.1217 146.345 52.2351 146.725 52.4617C147.111 52.6817 147.415 52.9951 147.635 53.4017C147.855 53.8017 147.965 54.2651 147.965 54.7917C147.965 54.8251 147.961 54.8617 147.955 54.9017C147.955 54.9351 147.955 54.9717 147.955 55.0117H143.385V54.4817H147.575L147.295 54.6917C147.295 54.3117 147.211 53.9751 147.045 53.6817C146.885 53.3817 146.665 53.1484 146.385 52.9817C146.105 52.8151 145.781 52.7317 145.415 52.7317C145.055 52.7317 144.731 52.8151 144.445 52.9817C144.158 53.1484 143.935 53.3817 143.775 53.6817C143.615 53.9817 143.535 54.3251 143.535 54.7117V54.8217C143.535 55.2217 143.621 55.5751 143.795 55.8817C143.975 56.1817 144.221 56.4184 144.535 56.5917C144.855 56.7584 145.218 56.8417 145.625 56.8417C145.945 56.8417 146.241 56.7851 146.515 56.6717C146.795 56.5584 147.035 56.3851 147.235 56.1517L147.635 56.6117C147.401 56.8917 147.108 57.1051 146.755 57.2517C146.408 57.3984 146.025 57.4717 145.605 57.4717ZM148.563 57.4217L150.783 54.5417L150.773 54.8917L148.663 52.1717H149.463L151.193 54.4217L150.893 54.4117L152.623 52.1717H153.403L151.273 54.9217L151.283 54.5417L153.523 57.4217H152.713L150.883 55.0217L151.163 55.0617L149.363 57.4217H148.563ZM158.932 57.4717C158.499 57.4717 158.089 57.4117 157.702 57.2917C157.316 57.1651 157.012 57.0084 156.792 56.8217L157.112 56.2617C157.326 56.4217 157.599 56.5617 157.932 56.6817C158.266 56.7951 158.616 56.8517 158.982 56.8517C159.482 56.8517 159.842 56.7751 160.062 56.6217C160.282 56.4617 160.392 56.2517 160.392 55.9917C160.392 55.7984 160.329 55.6484 160.202 55.5417C160.082 55.4284 159.922 55.3451 159.722 55.2917C159.522 55.2317 159.299 55.1817 159.052 55.1417C158.806 55.1017 158.559 55.0551 158.312 55.0017C158.072 54.9484 157.852 54.8717 157.652 54.7717C157.452 54.6651 157.289 54.5217 157.162 54.3417C157.042 54.1617 156.982 53.9217 156.982 53.6217C156.982 53.3351 157.062 53.0784 157.222 52.8517C157.382 52.6251 157.616 52.4484 157.922 52.3217C158.236 52.1884 158.616 52.1217 159.062 52.1217C159.402 52.1217 159.742 52.1684 160.082 52.2617C160.422 52.3484 160.702 52.4651 160.922 52.6117L160.612 53.1817C160.379 53.0217 160.129 52.9084 159.862 52.8417C159.596 52.7684 159.329 52.7317 159.062 52.7317C158.589 52.7317 158.239 52.8151 158.012 52.9817C157.792 53.1417 157.682 53.3484 157.682 53.6017C157.682 53.8017 157.742 53.9584 157.862 54.0717C157.989 54.1851 158.152 54.2751 158.352 54.3417C158.559 54.4017 158.782 54.4517 159.022 54.4917C159.269 54.5317 159.512 54.5817 159.752 54.6417C159.999 54.6951 160.222 54.7717 160.422 54.8717C160.629 54.9651 160.792 55.1017 160.912 55.2817C161.039 55.4551 161.102 55.6851 161.102 55.9717C161.102 56.2784 161.016 56.5451 160.842 56.7717C160.676 56.9917 160.429 57.1651 160.102 57.2917C159.782 57.4117 159.392 57.4717 158.932 57.4717ZM164.645 57.4717C164.139 57.4717 163.682 57.3584 163.275 57.1317C162.875 56.8984 162.559 56.5817 162.325 56.1817C162.092 55.7751 161.975 55.3117 161.975 54.7917C161.975 54.2651 162.092 53.8017 162.325 53.4017C162.559 53.0017 162.875 52.6884 163.275 52.4617C163.675 52.2351 164.132 52.1217 164.645 52.1217C165.165 52.1217 165.625 52.2351 166.025 52.4617C166.432 52.6884 166.749 53.0017 166.975 53.4017C167.209 53.8017 167.325 54.2651 167.325 54.7917C167.325 55.3117 167.209 55.7751 166.975 56.1817C166.749 56.5817 166.432 56.8984 166.025 57.1317C165.619 57.3584 165.159 57.4717 164.645 57.4717ZM164.645 56.8417C165.025 56.8417 165.362 56.7584 165.655 56.5917C165.949 56.4184 166.179 56.1784 166.345 55.8717C166.519 55.5584 166.605 55.1984 166.605 54.7917C166.605 54.3784 166.519 54.0184 166.345 53.7117C166.179 53.4051 165.949 53.1684 165.655 53.0017C165.362 52.8284 165.029 52.7417 164.655 52.7417C164.282 52.7417 163.949 52.8284 163.655 53.0017C163.362 53.1684 163.129 53.4051 162.955 53.7117C162.782 54.0184 162.695 54.3784 162.695 54.7917C162.695 55.1984 162.782 55.5584 162.955 55.8717C163.129 56.1784 163.362 56.4184 163.655 56.5917C163.949 56.7584 164.279 56.8417 164.645 56.8417ZM168.875 57.4217V50.0017H169.585V57.4217H168.875ZM173.83 57.4717C173.384 57.4717 172.994 57.3884 172.66 57.2217C172.327 57.0551 172.067 56.8051 171.88 56.4717C171.7 56.1384 171.61 55.7217 171.61 55.2217V52.1717H172.32V55.1417C172.32 55.7017 172.457 56.1251 172.73 56.4117C173.01 56.6917 173.4 56.8317 173.9 56.8317C174.267 56.8317 174.584 56.7584 174.85 56.6117C175.124 56.4584 175.33 56.2384 175.47 55.9517C175.617 55.6651 175.69 55.3217 175.69 54.9217V52.1717H176.4V57.4217H175.72V55.9817L175.83 56.2417C175.664 56.6284 175.404 56.9317 175.05 57.1517C174.704 57.3651 174.297 57.4717 173.83 57.4717ZM180.139 57.4717C179.646 57.4717 179.266 57.3384 178.999 57.0717C178.732 56.8051 178.599 56.4284 178.599 55.9417V51.0117H179.309V55.9017C179.309 56.2084 179.386 56.4451 179.539 56.6117C179.699 56.7784 179.926 56.8617 180.219 56.8617C180.532 56.8617 180.792 56.7717 180.999 56.5917L181.249 57.1017C181.109 57.2284 180.939 57.3217 180.739 57.3817C180.546 57.4417 180.346 57.4717 180.139 57.4717ZM177.659 52.7617V52.1717H180.909V52.7617H177.659ZM182.642 57.4217V52.1717H183.352V57.4217H182.642ZM183.002 51.0117C182.855 51.0117 182.732 50.9617 182.632 50.8617C182.532 50.7617 182.482 50.6417 182.482 50.5017C182.482 50.3617 182.532 50.2451 182.632 50.1517C182.732 50.0517 182.855 50.0017 183.002 50.0017C183.148 50.0017 183.272 50.0484 183.372 50.1417C183.472 50.2351 183.522 50.3517 183.522 50.4917C183.522 50.6384 183.472 50.7617 183.372 50.8617C183.278 50.9617 183.155 51.0117 183.002 51.0117ZM187.567 57.4717C187.06 57.4717 186.604 57.3584 186.197 57.1317C185.797 56.8984 185.48 56.5817 185.247 56.1817C185.014 55.7751 184.897 55.3117 184.897 54.7917C184.897 54.2651 185.014 53.8017 185.247 53.4017C185.48 53.0017 185.797 52.6884 186.197 52.4617C186.597 52.2351 187.054 52.1217 187.567 52.1217C188.087 52.1217 188.547 52.2351 188.947 52.4617C189.354 52.6884 189.67 53.0017 189.897 53.4017C190.13 53.8017 190.247 54.2651 190.247 54.7917C190.247 55.3117 190.13 55.7751 189.897 56.1817C189.67 56.5817 189.354 56.8984 188.947 57.1317C188.54 57.3584 188.08 57.4717 187.567 57.4717ZM187.567 56.8417C187.947 56.8417 188.284 56.7584 188.577 56.5917C188.87 56.4184 189.1 56.1784 189.267 55.8717C189.44 55.5584 189.527 55.1984 189.527 54.7917C189.527 54.3784 189.44 54.0184 189.267 53.7117C189.1 53.4051 188.87 53.1684 188.577 53.0017C188.284 52.8284 187.95 52.7417 187.577 52.7417C187.204 52.7417 186.87 52.8284 186.577 53.0017C186.284 53.1684 186.05 53.4051 185.877 53.7117C185.704 54.0184 185.617 54.3784 185.617 54.7917C185.617 55.1984 185.704 55.5584 185.877 55.8717C186.05 56.1784 186.284 56.4184 186.577 56.5917C186.87 56.7584 187.2 56.8417 187.567 56.8417ZM194.477 52.1217C194.903 52.1217 195.277 52.2051 195.597 52.3717C195.923 52.5317 196.177 52.7784 196.357 53.1117C196.543 53.4451 196.637 53.8651 196.637 54.3717V57.4217H195.927V54.4417C195.927 53.8884 195.787 53.4717 195.507 53.1917C195.233 52.9051 194.847 52.7617 194.347 52.7617C193.973 52.7617 193.647 52.8384 193.367 52.9917C193.093 53.1384 192.88 53.3551 192.727 53.6417C192.58 53.9217 192.507 54.2617 192.507 54.6617V57.4217H191.797V52.1717H192.477V53.6117L192.367 53.3417C192.533 52.9617 192.8 52.6651 193.167 52.4517C193.533 52.2317 193.97 52.1217 194.477 52.1217ZM200.064 57.4717C199.631 57.4717 199.221 57.4117 198.834 57.2917C198.448 57.1651 198.144 57.0084 197.924 56.8217L198.244 56.2617C198.458 56.4217 198.731 56.5617 199.064 56.6817C199.398 56.7951 199.748 56.8517 200.114 56.8517C200.614 56.8517 200.974 56.7751 201.194 56.6217C201.414 56.4617 201.524 56.2517 201.524 55.9917C201.524 55.7984 201.461 55.6484 201.334 55.5417C201.214 55.4284 201.054 55.3451 200.854 55.2917C200.654 55.2317 200.431 55.1817 200.184 55.1417C199.938 55.1017 199.691 55.0551 199.444 55.0017C199.204 54.9484 198.984 54.8717 198.784 54.7717C198.584 54.6651 198.421 54.5217 198.294 54.3417C198.174 54.1617 198.114 53.9217 198.114 53.6217C198.114 53.3351 198.194 53.0784 198.354 52.8517C198.514 52.6251 198.748 52.4484 199.054 52.3217C199.368 52.1884 199.748 52.1217 200.194 52.1217C200.534 52.1217 200.874 52.1684 201.214 52.2617C201.554 52.3484 201.834 52.4651 202.054 52.6117L201.744 53.1817C201.511 53.0217 201.261 52.9084 200.994 52.8417C200.728 52.7684 200.461 52.7317 200.194 52.7317C199.721 52.7317 199.371 52.8151 199.144 52.9817C198.924 53.1417 198.814 53.3484 198.814 53.6017C198.814 53.8017 198.874 53.9584 198.994 54.0717C199.121 54.1851 199.284 54.2751 199.484 54.3417C199.691 54.4017 199.914 54.4517 200.154 54.4917C200.401 54.5317 200.644 54.5817 200.884 54.6417C201.131 54.6951 201.354 54.7717 201.554 54.8717C201.761 54.9651 201.924 55.1017 202.044 55.2817C202.171 55.4551 202.234 55.6851 202.234 55.9717C202.234 56.2784 202.148 56.5451 201.974 56.7717C201.808 56.9917 201.561 57.1651 201.234 57.2917C200.914 57.4117 200.524 57.4717 200.064 57.4717Z" fill="#2F2B2B"/>
</svg>
