<svg width="20" height="20" viewBox="0 0 20 20" fill="none" xmlns="http://www.w3.org/2000/svg">
<path d="M18.6332 18.6661L18.6332 18.6661L18.6279 18.6689C17.0603 19.5068 15.2338 19.7209 13.5149 19.2683L13.5149 19.2683L13.5096 19.267C11.1957 18.6845 8.29611 16.6953 5.80063 14.1998C3.30515 11.7043 1.31597 8.80477 0.733452 6.4908L0.733481 6.4908L0.732104 6.48556C0.279555 4.76665 0.493688 2.94018 1.33155 1.37255L1.33158 1.37257L1.33436 1.36721C1.45069 1.1431 1.61815 0.949532 1.82321 0.802183C2.02826 0.654835 2.26513 0.557847 2.51463 0.519072C2.76414 0.480298 3.01927 0.500827 3.25937 0.578998C3.49934 0.657126 3.71754 0.790638 3.89634 0.968731C3.89644 0.968828 3.89654 0.968926 3.89663 0.969024L5.98111 3.0525L5.98111 3.05251L5.98282 3.0542C6.2117 3.28078 6.36657 3.57138 6.42704 3.88772C6.48751 4.20406 6.45073 4.5313 6.32156 4.82632L6.32154 4.82631L6.31975 4.8305C6.1585 5.2081 5.92975 5.55311 5.64472 5.84862C4.82468 6.67227 4.96652 7.87878 5.41864 8.95275C5.88479 10.06 6.75616 11.2366 7.7604 12.2408C8.76464 13.245 9.94109 14.1163 11.0483 14.5824C12.1223 15.0344 13.3288 15.1761 14.1522 14.3553C14.4478 14.0692 14.7932 13.8395 15.1714 13.6775L15.1714 13.6775L15.1754 13.6758C15.4703 13.5464 15.7975 13.5095 16.1138 13.57C16.4301 13.6304 16.7206 13.7854 16.947 14.0144L16.9486 14.016L19.0314 16.1038C19.2097 16.2827 19.3433 16.501 19.4214 16.7411C19.4996 16.9812 19.5201 17.2363 19.4814 17.4858C19.4426 17.7353 19.3456 17.9722 19.1983 18.1772C19.0509 18.3823 18.8573 18.5498 18.6332 18.6661Z" stroke="#2F2B2B"/>
</svg>
