<svg width="62" height="47" viewBox="0 0 62 47" fill="none" xmlns="http://www.w3.org/2000/svg">
<path d="M1 22.2977V3.74809C1 1.54962 2.8571 1 3.78565 1H23.6334C25.5833 1 26.3029 2.83206 26.419 3.74809C26.419 3.74809 26.7672 21.2672 26.419 24.3588C26.0708 27.4503 17.9231 43.5261 17.3657 44.6259L17.3657 44.626C16.8085 45.7252 15.7407 46 15.2764 46H9.00873C8.17304 46 7.96411 44.855 7.96411 44.2824C9.473 40.5038 12.6997 32.3282 13.5354 29.855C14.3711 27.3817 13.8836 25.3893 13.5354 24.7023H3.78565C1.55713 24.7023 1 23.0992 1 22.2977Z" stroke="#40C4A4" stroke-width="2"/>
<path d="M35.4263 22.2977V3.74809C35.4263 1.54962 37.2834 1 38.2119 1H58.0596C60.0096 1 60.7292 2.83206 60.8453 3.74809C60.8453 3.74809 61.1935 21.2672 60.8453 24.3588C60.4971 27.4503 52.3494 43.5261 51.792 44.6259L51.7919 44.626C51.2348 45.7252 50.167 46 49.7027 46H43.435C42.5993 46 42.3904 44.855 42.3904 44.2824C43.8993 40.5038 47.126 32.3282 47.9617 29.855C48.7974 27.3817 48.3099 25.3893 47.9617 24.7023H38.2119C35.9834 24.7023 35.4263 23.0992 35.4263 22.2977Z" stroke="#40C4A4" stroke-width="2"/>
</svg>
